<svg width="21" height="25" viewBox="0 0 21 25" fill="none" xmlns="http://www.w3.org/2000/svg">
<path fill-rule="evenodd" clip-rule="evenodd" d="M15.8954 0.73999C13.7746 0.73999 12.0554 2.45921 12.0554 4.57999C12.0554 4.81147 12.0758 5.03814 12.1152 5.25834L6.52567 9.17095C6.49726 9.19083 6.47038 9.21207 6.44505 9.23453C5.79314 8.7242 4.97209 8.41999 4.07999 8.41999C1.95921 8.41999 0.23999 10.1392 0.23999 12.26C0.23999 14.3807 1.95921 16.1 4.07999 16.1C4.97209 16.1 5.79314 15.7957 6.44505 15.2854C6.47038 15.3079 6.49726 15.3292 6.52567 15.349L12.1152 19.2617C12.0758 19.4818 12.0554 19.7085 12.0554 19.94C12.0554 22.0607 13.7746 23.78 15.8954 23.78C18.0161 23.78 19.7354 22.0607 19.7354 19.94C19.7354 17.8192 18.0161 16.1 15.8954 16.1C14.6515 16.1 13.5456 16.6915 12.8439 17.6085L7.55142 13.9036C7.78776 13.4054 7.91999 12.8482 7.91999 12.26C7.91999 11.6718 7.78776 11.1146 7.55142 10.6164L12.8439 6.91152C13.5456 7.82854 14.6515 8.41999 15.8954 8.41999C18.0161 8.41999 19.7354 6.70077 19.7354 4.57999C19.7354 2.45921 18.0161 0.73999 15.8954 0.73999ZM13.8277 4.57999C13.8277 3.43803 14.7534 2.5123 15.8954 2.5123C17.0373 2.5123 17.9631 3.43803 17.9631 4.57999C17.9631 5.72195 17.0373 6.64768 15.8954 6.64768C14.7534 6.64768 13.8277 5.72195 13.8277 4.57999ZM4.07999 10.1923C2.93803 10.1923 2.0123 11.118 2.0123 12.26C2.0123 13.4019 2.93803 14.3277 4.07999 14.3277C5.22195 14.3277 6.14768 13.4019 6.14768 12.26C6.14768 11.118 5.22195 10.1923 4.07999 10.1923ZM15.8954 17.8723C14.7534 17.8723 13.8277 18.798 13.8277 19.94C13.8277 21.0819 14.7534 22.0077 15.8954 22.0077C17.0373 22.0077 17.9631 21.0819 17.9631 19.94C17.9631 18.798 17.0373 17.8723 15.8954 17.8723Z" fill="#353132"/>
</svg>
