<svg width="20" height="20" viewBox="0 0 20 20" fill="none" xmlns="http://www.w3.org/2000/svg">
<path d="M8.54091 4.9186C8.90696 4.9186 9.2037 5.21535 9.2037 5.5814V14.4186C9.2037 14.6949 9.03232 14.9422 8.77363 15.0392C8.51494 15.1362 8.22321 15.0626 8.04155 14.8544L5.39038 11.8166C5.14969 11.5408 5.17815 11.1221 5.45394 10.8815C5.72973 10.6408 6.14842 10.6692 6.38911 10.945L7.87812 12.6512V5.5814C7.87812 5.21535 8.17486 4.9186 8.54091 4.9186Z" fill="#353132"/>
<path d="M12.5752 5.14559C12.3935 4.93743 12.1018 4.8638 11.8431 4.9608C11.5844 5.05781 11.413 5.30511 11.413 5.5814V14.4186C11.413 14.7847 11.7097 15.0814 12.0758 15.0814C12.4418 15.0814 12.7386 14.7847 12.7386 14.4186V7.34884L14.2276 9.05499C14.4683 9.33078 14.887 9.35924 15.1628 9.11855C15.4386 8.87786 15.467 8.45917 15.2263 8.18338L12.5752 5.14559Z" fill="#353132"/>
<path fill-rule="evenodd" clip-rule="evenodd" d="M0.80835 10C0.80835 4.75329 5.06164 0.5 10.3083 0.5C15.5551 0.5 19.8083 4.75329 19.8083 10C19.8083 15.2467 15.5551 19.5 10.3083 19.5C5.06164 19.5 0.80835 15.2467 0.80835 10ZM10.3083 1.82558C5.79374 1.82558 2.13393 5.48539 2.13393 10C2.13393 14.5146 5.79374 18.1744 10.3083 18.1744C14.823 18.1744 18.4828 14.5146 18.4828 10C18.4828 5.48539 14.823 1.82558 10.3083 1.82558Z" fill="#353132"/>
</svg>
