<svg width="20" height="18" viewBox="0 0 20 18" fill="none" xmlns="http://www.w3.org/2000/svg">
    <path d="M10.0438 3.19443L9.55295 3.66685C9.68139 3.80028 9.8586 3.87567 10.0438 3.87567C10.229 3.87567 10.4062 3.80028 10.5347 3.66685L10.0438 3.19443ZM7.70582 14.8403C6.32911 13.7551 4.82372 12.6952 3.62947 11.3504C2.45857 10.0319 1.64179 8.49349 1.64179 6.49753H0.279297C0.279297 8.91867 1.28799 10.7658 2.61072 12.2551C3.91009 13.7183 5.56646 14.8887 6.86232 15.9103L7.70582 14.8403ZM1.64179 6.49753C1.64179 4.54384 2.74574 2.90548 4.25265 2.21667C5.71661 1.54749 7.68367 1.72471 9.55295 3.66685L10.5347 2.722C8.31663 0.417571 5.74206 0.0377719 3.68621 0.9775C1.67332 1.8976 0.279297 4.03408 0.279297 6.49753H1.64179ZM6.86232 15.9103C7.3276 16.2771 7.82708 16.6682 8.33325 16.964C8.83928 17.2597 9.4167 17.5 10.0438 17.5V16.1375C9.76259 16.1375 9.43169 16.0279 9.02067 15.7876C8.60983 15.5476 8.18363 15.217 7.70582 14.8403L6.86232 15.9103ZM13.2253 15.9103C14.5211 14.8887 16.1776 13.7183 17.4769 12.2551C18.7996 10.7658 19.8083 8.91867 19.8083 6.49753H18.4458C18.4458 8.49349 17.6291 10.0319 16.4581 11.3504C15.2639 12.6952 13.7585 13.7551 12.3818 14.8403L13.2253 15.9103ZM19.8083 6.49753C19.8083 4.03408 18.4143 1.8976 16.4014 0.9775C14.3456 0.0377719 11.771 0.417571 9.55295 2.722L10.5347 3.66685C12.4039 1.72471 14.371 1.54749 15.8349 2.21667C17.3419 2.90548 18.4458 4.54384 18.4458 6.49753H19.8083ZM12.3818 14.8403C11.904 15.217 11.4778 15.5476 11.0669 15.7876C10.6559 16.0279 10.325 16.1375 10.0438 16.1375V17.5C10.6709 17.5 11.2483 17.2597 11.7544 16.964C12.2606 16.6682 12.76 16.2771 13.2253 15.9103L12.3818 14.8403Z"
          fill="#353132"/>
</svg>
