<svg width="20" height="20" viewBox="0 0 20 20" fill="none" xmlns="http://www.w3.org/2000/svg">
<path fill-rule="evenodd" clip-rule="evenodd" d="M9.36649 0.5C4.36382 0.5 0.30835 4.55547 0.30835 9.55814C0.30835 14.5608 4.36382 18.6163 9.36649 18.6163C11.6293 18.6163 13.6983 17.7866 15.2858 16.4148L18.1769 19.3059C18.4357 19.5647 18.8554 19.5647 19.1142 19.3059C19.3731 19.047 19.3731 18.6274 19.1142 18.3685L16.2232 15.4775C17.5949 13.8899 18.4246 11.8209 18.4246 9.55814C18.4246 4.55547 14.3692 0.5 9.36649 0.5ZM1.63393 9.55814C1.63393 5.28757 5.09592 1.82558 9.36649 1.82558C13.6371 1.82558 17.099 5.28757 17.099 9.55814C17.099 13.8287 13.6371 17.2907 9.36649 17.2907C5.09592 17.2907 1.63393 13.8287 1.63393 9.55814Z" fill="#353132"/>
</svg>
