<svg width="17" height="20" viewBox="0 0 17 20" fill="none" xmlns="http://www.w3.org/2000/svg">
<path fill-rule="evenodd" clip-rule="evenodd" d="M8.13966 0C5.69933 0 3.72105 1.97828 3.72105 4.4186C3.72105 6.85893 5.69933 8.83721 8.13966 8.83721C10.58 8.83721 12.5583 6.85893 12.5583 4.4186C12.5583 1.97828 10.58 0 8.13966 0ZM5.1164 4.4186C5.1164 2.74891 6.46996 1.39535 8.13966 1.39535C9.80936 1.39535 11.1629 2.74891 11.1629 4.4186C11.1629 6.0883 9.80936 7.44186 8.13966 7.44186C6.46996 7.44186 5.1164 6.0883 5.1164 4.4186Z" fill="#353132"/>
<path fill-rule="evenodd" clip-rule="evenodd" d="M8.13966 10.2326C5.98752 10.2326 4.00471 10.7217 2.53543 11.5482C1.08801 12.3624 0.000124887 13.5963 0.000124887 15.1163C0.000124887 15.1476 9.41555e-05 15.1792 6.31944e-05 15.2111L6.31417e-05 15.2111C-0.000987798 16.2919 -0.00230681 17.6484 1.18748 18.6173C1.77304 19.0941 2.5922 19.4332 3.69892 19.6572C4.80874 19.8818 6.25522 20 8.13966 20C10.0241 20 11.4706 19.8818 12.5804 19.6572C13.6871 19.4332 14.5063 19.0941 15.0918 18.6173C16.2816 17.6484 16.2803 16.2919 16.2793 15.2111C16.2792 15.1793 16.2792 15.1476 16.2792 15.1163C16.2792 13.5963 15.1913 12.3624 13.7439 11.5482C12.2746 10.7217 10.2918 10.2326 8.13966 10.2326ZM1.39547 15.1163C1.39547 14.3243 1.9735 13.4652 3.21951 12.7644C4.44365 12.0758 6.18177 11.6279 8.13966 11.6279C10.0976 11.6279 11.8357 12.0758 13.0598 12.7644C14.3058 13.4652 14.8838 14.3243 14.8838 15.1163C14.8838 16.3328 14.8463 17.0177 14.2107 17.5353C13.8661 17.816 13.2899 18.0899 12.3036 18.2896C11.3204 18.4886 9.97615 18.6047 8.13966 18.6047C6.30317 18.6047 4.95895 18.4886 3.97574 18.2896C2.98945 18.0899 2.41326 17.816 2.06858 17.5353C1.43298 17.0177 1.39547 16.3328 1.39547 15.1163Z" fill="#353132"/>
</svg>
