<svg width="21" height="20" viewBox="0 0 21 20" fill="none" xmlns="http://www.w3.org/2000/svg">
<g clip-path="url(#clip0_602_1627)">
<path d="M10.4551 1.32869C2.73014 1.32619 -1.13903 10.6645 4.3218 16.127C5.53411 17.3397 7.0788 18.1655 8.76051 18.5002C10.4422 18.8349 12.1854 18.6634 13.7696 18.0073C15.3538 17.3512 16.7079 16.2401 17.6606 14.8144C18.6133 13.3887 19.1218 11.7125 19.1218 9.99786C19.1218 5.21119 15.2426 1.33036 10.4551 1.32869ZM5.54597 5.65286C5.96347 3.48786 8.79014 2.90786 10.026 4.73369C11.2618 6.55869 9.6743 8.96869 7.5093 8.55202C7.18997 8.49068 6.88586 8.36702 6.61435 8.18809C6.34283 8.00917 6.10923 7.7785 5.9269 7.50926C5.74457 7.24002 5.61708 6.93749 5.55172 6.61896C5.48636 6.30043 5.4844 5.97214 5.54597 5.65286ZM9.14764 13.1429C8.72764 15.307 5.90014 15.8829 4.6668 14.0562C3.43347 12.2295 5.02264 9.82286 7.18764 10.2404C7.50701 10.3021 7.81108 10.4261 8.08247 10.6054C8.35386 10.7847 8.58724 11.0158 8.76928 11.2853C8.95131 11.5549 9.07843 11.8577 9.14335 12.1764C9.20827 12.4952 9.20973 12.8236 9.14764 13.1429ZM10.1976 11.1387C9.23764 10.9529 8.9793 9.69952 9.78847 9.14952C10.5968 8.59952 11.6685 9.29952 11.4885 10.2612C11.4618 10.4037 11.4072 10.5395 11.3278 10.6609C11.2484 10.7822 11.1458 10.8867 11.026 10.9682C10.9061 11.0498 10.7712 11.1068 10.6292 11.1361C10.4872 11.1653 10.34 11.1662 10.1976 11.1387ZM15.3626 14.337C14.9451 16.502 12.1185 17.0812 10.8826 15.2562C9.64597 13.4304 11.2335 11.0212 13.3993 11.437C13.7187 11.4984 14.0229 11.6221 14.2945 11.801C14.5661 11.98 14.7997 12.2108 14.982 12.4801C15.1644 12.7494 15.2919 13.052 15.3572 13.3707C15.4225 13.6893 15.4243 14.0177 15.3626 14.337ZM13.7235 9.75202C11.5585 9.33452 10.9793 6.50536 12.8051 5.26869C14.6301 4.03286 17.0393 5.62036 16.6235 7.78536C16.5625 8.10507 16.4391 8.40962 16.2603 8.68157C16.0815 8.95353 15.8508 9.18754 15.5814 9.37022C15.312 9.5529 15.0093 9.68065 14.6905 9.74617C14.3717 9.81168 14.0431 9.81367 13.7235 9.75202ZM11.7793 19.387L13.666 19.8954C14.4593 20.1059 15.3037 19.9927 16.0137 19.5808C16.7236 19.1689 17.2409 18.4919 17.4518 17.6987L17.9851 15.697C16.4836 17.6971 14.2529 19.0233 11.7785 19.387H11.7793ZM18.1485 2.99952L16.1793 2.47536C17.1744 3.24081 18.0076 4.19631 18.6305 5.28638C19.2533 6.37645 19.6535 7.57939 19.8076 8.82536L20.3493 6.77619C20.5566 5.98347 20.4412 5.1409 20.0283 4.43314C19.6155 3.72537 18.9389 3.21014 18.1468 3.00036L18.1485 2.99952ZM1.0143 11.5079L0.56347 13.2079C0.352969 14.0012 0.466115 14.8456 0.878035 15.5555C1.28996 16.2655 1.96693 16.7828 2.76014 16.9937L4.51597 17.462C2.64142 15.9882 1.39171 13.8623 1.0143 11.5079ZM9.08514 0.585358L7.24597 0.105358C6.85288 0.000644306 6.443 -0.0255694 6.03977 0.0282152C5.63654 0.0819997 5.24786 0.214728 4.89596 0.418812C4.54406 0.622896 4.23582 0.894335 3.98888 1.21761C3.74194 1.54089 3.56114 1.90966 3.4568 2.30286L2.99764 4.03786C4.5124 2.15256 6.6896 0.917463 9.08514 0.585358Z" fill="#5FED2F"/>
</g>
<defs>
<clipPath id="clip0_602_1627">
<rect width="19.9901" height="19.9979" fill="white" transform="translate(0.459915 0.0010376)"/>
</clipPath>
</defs>
</svg>
