<svg width="21" height="20" viewBox="0 0 21 20" fill="none" xmlns="http://www.w3.org/2000/svg">
<g clip-path="url(#clip0_602_1633)">
<path fill-rule="evenodd" clip-rule="evenodd" d="M6.31967 0.122729C4.69178 0.196179 3.28082 0.594176 2.14151 1.72869C0.998207 2.86916 0.605154 4.28571 0.531521 5.89666C0.485749 6.90213 0.218098 14.4983 0.994228 16.4904C1.51762 17.8343 2.54845 18.8677 3.90469 19.3927C4.53753 19.6389 5.25995 19.8055 6.31967 19.8542C15.1805 20.2552 18.4651 20.0369 19.8502 16.4904C20.096 15.8591 20.2651 15.1373 20.3119 14.0802C20.7169 5.19671 20.2462 3.27115 18.7019 1.72869C17.477 0.506826 16.0362 -0.324921 6.31967 0.122729ZM6.40124 18.0676C5.43108 18.0239 4.90471 17.8622 4.55346 17.7262C3.66987 17.3828 3.00618 16.7219 2.66488 15.8434C2.07383 14.3298 2.26986 7.14052 2.3226 5.97722C2.37434 4.83774 2.60518 3.79634 3.40918 2.99236C4.40421 1.99978 5.68979 1.51332 14.4431 1.90837C15.5854 1.95998 16.6293 2.19036 17.4352 2.99236C18.4303 3.98493 18.9238 5.2804 18.5218 14.0002C18.478 14.9679 18.3159 15.4931 18.1795 15.8434C17.279 18.1512 15.2073 18.4715 6.40124 18.0676ZM14.5397 4.68962C14.5397 5.34671 15.074 5.88103 15.7337 5.88103C16.3934 5.88103 16.9288 5.34671 16.9288 4.68962C16.9288 4.03254 16.3934 3.49871 15.7337 3.49871C15.074 3.49871 14.5397 4.03254 14.5397 4.68962ZM5.31268 9.98796C5.31268 12.8029 7.60028 15.0851 10.4222 15.0851C13.2441 15.0851 15.5317 12.8029 15.5317 9.98796C15.5317 7.17302 13.2441 4.89226 10.4222 4.89226C7.60028 4.89226 5.31268 7.17302 5.31268 9.98796ZM7.10574 9.98796C7.10574 8.16163 8.59034 6.67986 10.4222 6.67986C12.2541 6.67986 13.7387 8.16163 13.7387 9.98796C13.7387 11.8153 12.2541 13.2975 10.4222 13.2975C8.59034 13.2975 7.10574 11.8153 7.10574 9.98796Z" fill="#5FED2F"/>
</g>
<defs>
<clipPath id="clip0_602_1633">
<rect width="20" height="20" fill="white" transform="translate(0.450012)"/>
</clipPath>
</defs>
</svg>
