<svg width="21" height="20" viewBox="0 0 21 20" fill="none" xmlns="http://www.w3.org/2000/svg">
<g clip-path="url(#clip0_602_1631)">
<path d="M14.5383 5.98606C14.5423 5.98606 14.5476 5.98606 14.5529 5.98606C14.6917 5.98606 14.8205 6.02922 14.9261 6.10359L14.9241 6.10226C15.0011 6.16932 15.0529 6.26361 15.0656 6.36985V6.37185C15.0788 6.45286 15.0861 6.54582 15.0861 6.64077C15.0861 6.68393 15.0848 6.72643 15.0815 6.76892V6.76295C14.9321 8.33599 14.284 12.1507 13.9547 13.9117C13.8152 14.6574 13.541 14.907 13.2754 14.9309C12.6984 14.9847 12.2601 14.5498 11.701 14.1833C10.8258 13.6089 10.3312 13.2517 9.48189 12.6919C8.49982 12.0458 9.1366 11.6892 9.6957 11.1089C9.84245 10.9562 12.3863 8.6421 12.4361 8.43227C12.4387 8.41965 12.4401 8.40571 12.4401 8.3911C12.4401 8.33931 12.4208 8.29216 12.3896 8.25631C12.3551 8.23373 12.3119 8.22112 12.2667 8.22112C12.2369 8.22112 12.2083 8.22709 12.1818 8.23705L12.1831 8.23639C12.0954 8.25631 10.6975 9.18017 7.98919 11.008C7.69371 11.241 7.32053 11.3884 6.91416 11.4057H6.91018C6.33448 11.336 5.8119 11.2078 5.31589 11.0252L5.36502 11.0412C4.74218 10.838 4.24749 10.7311 4.28999 10.3871C4.31257 10.2083 4.55914 10.0252 5.0297 9.83798C7.92833 8.57503 9.86126 7.74259 10.8285 7.34064C11.8956 6.77424 13.1326 6.3081 14.4334 6.00598L14.5377 5.98539L14.5383 5.98606ZM10.4268 0C4.91416 0.0132802 0.450016 4.48539 0.450016 10C0.450016 15.5226 4.92678 20 10.45 20C15.9733 20 20.45 15.5232 20.45 10C20.45 4.48539 15.9859 0.0132802 10.4746 0H10.4733C10.4578 0 10.4423 0 10.4268 0Z" fill="#5FED2F"/>
</g>
<defs>
<clipPath id="clip0_602_1631">
<rect width="20" height="20" fill="white" transform="translate(0.450016)"/>
</clipPath>
</defs>
</svg>
