<svg width="21" height="20" viewBox="0 0 21 20" fill="none" xmlns="http://www.w3.org/2000/svg">
<g clip-path="url(#clip0_602_1629)">
<path d="M8.40387 12.9741V7.028L13.6311 10.0014L8.40387 12.9741ZM20.0306 5.15623C19.7945 4.28869 19.1277 3.61787 18.2802 3.38048L18.2622 3.37648C16.133 3.10575 13.6704 2.95105 11.1712 2.95105C10.9171 2.95105 10.6637 2.95238 10.411 2.95571L10.4497 2.95505C10.235 2.95238 9.98224 2.95038 9.72818 2.95038C7.22893 2.95038 4.76502 3.10508 2.34646 3.40448L2.63586 3.37514C1.77099 3.6172 1.10417 4.28736 0.872781 5.13756L0.86878 5.15489C0.602052 6.56122 0.450016 8.1796 0.450016 9.83332C0.450016 9.892 0.450016 9.95068 0.450683 10.0087V9.99936C0.450683 10.0487 0.450016 10.1074 0.450016 10.1661C0.450016 11.8198 0.602718 13.4375 0.89412 15.0065L0.86878 14.8438C1.10484 15.7114 1.77166 16.3822 2.61919 16.6196L2.63719 16.6236C4.76636 16.8943 7.22893 17.049 9.72818 17.049C9.98157 17.049 10.235 17.0477 10.4884 17.0443L10.4497 17.045C10.6644 17.0477 10.9178 17.0497 11.1712 17.0497C13.6711 17.0497 16.1343 16.895 18.5529 16.5956L18.2635 16.6249C19.129 16.3835 19.7959 15.7127 20.0279 14.8625L20.0319 14.8452C20.298 13.4388 20.45 11.8204 20.45 10.1674C20.45 10.1087 20.45 10.05 20.4494 9.99202V10.0007C20.4494 9.95135 20.45 9.89267 20.45 9.83399C20.45 8.18027 20.2973 6.56255 20.0059 4.99352L20.0306 5.15623Z" fill="#5FED2F"/>
</g>
<defs>
<clipPath id="clip0_602_1629">
<rect width="20" height="20" fill="white" transform="translate(0.450016)"/>
</clipPath>
</defs>
</svg>
